/* XPM */
static char *_1cd5950482b4cf2fc6a4ca90888d68b1pE0RXOp9diTQf0v[] = {
/* columns rows colors chars-per-pixel */
"32 32 62 1 ",
"  c #5C087F",
". c #524A4A",
"X c #544B4B",
"o c #534C4C",
"O c #554D4D",
"+ c #565050",
"@ c #585151",
"# c #5B5356",
"$ c #5A5454",
"% c #5C5555",
"& c #5E5658",
"* c #5C5959",
"= c #5F5A5C",
"- c #615B5B",
"; c #615B5E",
": c #625D5D",
"> c #665E64",
", c #6D417F",
"< c #6F497F",
"1 c #714F7F",
"2 c #73537E",
"3 c #73567F",
"4 c #74587F",
"5 c #626060",
"6 c #656060",
"7 c #666264",
"8 c #686267",
"9 c #696565",
"0 c #6D636A",
"q c #6B6568",
"w c #6C656A",
"e c #6F656F",
"r c #6C6868",
"t c #6F6C6C",
"y c #726F6F",
"u c #6F6571",
"i c #726673",
"p c #726674",
"a c #746775",
"s c #726D71",
"d c #746D73",
"f c #736E74",
"g c #746F74",
"h c #766778",
"j c #77637E",
"k c #79667E",
"l c #776B7A",
"z c #78687B",
"x c #79697E",
"c c #7A6C7F",
"v c #737171",
"b c #757373",
"n c #757474",
"m c #7D777E",
"M c #7E787F",
"N c #7E7E7E",
"B c #5C0882",
"V c #5E0C83",
"C c #5F1281",
"Z c #662B81",
"A c #6D4180",
"S c #6E4680",
/* pixels */
"..O*....................**%**..t",
"OO+O........................@..9",
"...............................-",
"..............O*...O...........o",
".....OOO....O#ww9:6r@...........",
".......**...*vnMmgsn:...........",
".......*6*$*666ii666t@......o...",
"....$t966666660ee66666*O.......O",
".....9geee66ixxxxxl66666*O......",
".....%66pxexxxxxxxxx06666@......",
".....*66uxxxxxxxxxxxxu666*......",
"...X*986ixxxx4S4xxxxxxe666*O....",
"...@6660xxxxxZBZxxxxxxxe666@....",
"...*660xxxxx4BBBZjxxxxxe666@....",
"..@660xxxxx2 BBVB jxxxx0668;....",
"..@60xxxxx<CBBBBBB3xxxx6668=....",
"...*exxxxxxZBBBBB kxxxx0666*...$",
"...$0xxxxxx2ZBBBBjxxxxx0666+....",
"...*6lxxxxxxx,BZ1xxxxxxi66*.....",
"..@6qmxxxxxxxxAxxxxxxxxi66$.....",
"**67mNcxxxxxxxjxxxxxxxa666*....O",
"OO*666fxxxxxxxxxxxxxxx66665$....",
"...*666lxxxxxxxxxxxxx0666OO+....",
"...O666ypxxxxxxxxxxxx666O.......",
"....*66nb0ihxxxxxxxz6666O.......",
"....@6nNNe660alxxlap6*OO*O......",
"....OOn996666668666d8....+o.....",
".......6*@@*666666**>.........O*",
".......O....*66*@O..&..........-",
"@....O......o6*.....*O.O.......%",
"*...$O......o6@....O....@......-",
"%....N@O....*6@....O....6@OO...t"
};
