/* XPM */
static char *result[] = {
/* columns rows colors chars-per-pixel */
"32 32 20 1 ",
"  c #1B1B1B",
". c #1D1D1D",
"X c gray13",
"o c #2A2A2A",
"O c #2D2D2D",
"+ c gray19",
"@ c #EDC900",
"# c #F4CE00",
"$ c #F8CE00",
"% c #F8D200",
"& c #FBD400",
"* c #FCD500",
"= c #FCD600",
"- c #FDD600",
"; c #FDD700",
": c #FED600",
"> c #FED700",
", c #FED800",
"< c #FFD800",
"1 c None",
/* pixels */
"11111111111111111111111111111111",
"11111111111111111111111111111111",
"11111111111++++++++++++++++11111",
"11111111111+<<<<<<<>>>>>$++11111",
"11111111111+<<<<<<<<<<<<++111111",
"1111111111++<<>>>>><<<<++1111111",
"111111111++<<,<<<<<<<<++11111111",
"111111111+<<,,<<<<<<<++111111111",
"11111111++<<<<<<<<<++11111111111",
"1111111++<<<><<<<<++111111111111",
"1111111+<<<<<<<<<++1111111111111",
"111111++<<<<<<<@++11111111111111",
"111111+<<<<<<,<++111111111111111",
"11111 +<<>:>>*>++++++++++1111111",
"1111++<<<<<<<<<<<<<<<,<O+1111111",
"1111+<<#>>%>>=;>>>,<<<O+11111111",
"111XO+o+Oo++++,<,><<-++111111111",
"111111111111+><<,<<-++1111111111",
"11111111111++<<,<<&++11111111111",
"11111111111+<<,<<-++111111111111",
"1111111111++<,<<,++1111111111111",
"111111111++<<<<++O11111111111111",
"111111111+<<<<++1111111111111111",
"11111111++<<<++11111111111111111",
"1111111++<<<++111111111111111111",
"111111++<<<++1111111111111111111",
"11111++<<+++11111111111111111111",
"11111+<<++1111111111111111111111",
"11111+<++11111111111111111111111",
"11111+++111111111111111111111111",
"11111111111111111111111111111111",
"11111111111111111111111111111111",
};
