/* XPM */
static char *result[] = {
/* columns rows colors chars-per-pixel */
"32 32 8 1 ",
"  c black",
". c #484A77",
"X c #4D65B4",
"o c #4D9BE6",
"O c #9BABB2",
"+ c #C7DCD0",
"@ c white",
"# c None",
/* pixels */
"################################",
"################################",
"################################",
"###############  ###############",
"############## +@ ##############",
"############# ++@@ #############",
"############# +XX@ #############",
"############ +.XXo@ ############",
"############ +.XXo@ ############",
"########### +..XXoo@ ###########",
"########### +..XXoo@ ###########",
"########### O++XX@@+ ###########",
"##########  O+++@@++  ##########",
"######### O  O++@@+  + #########",
"######## +O  O++@@+  +@ ########",
"####### ++O  O++@@+  +@@ #######",
"###### +++O  O++@@+  +@@@ ######",
"##### ++.+O  O++@@+  +@X@@ #####",
"#### +++.+O  O++@@+  +@X@@@ ####",
"### ++.+.+O  O++@@+  +@X@X@@ ###",
"## +++.+++O  O++@@+  +@@@X@@@ ##",
"# O++++++OO  O++@@+  ++@@@@@@+ #",
"# O++++OO     ++@@     ++@@@@+ #",
"# +++OO  #### ++@@ ####  ++@@@ #",
"# +OO  ###### ++@@ ######  ++@ #",
"# O  ######## ++@@ ########  + #",
"#  ########## ++@@ ##########  #",
"############# +  @ #############",
"#############  ##  #############",
"################################",
"################################",
"################################"
};
