/* XPM */
static char *result[] = {
/* columns rows colors chars-per-pixel */
"32 32 35 1 ",
"  c #0094FF",
". c #009CFF",
"X c #00A3FF",
"o c #00A9FF",
"O c #00AFFF",
"+ c #00B5FF",
"@ c #00BAFF",
"# c DeepSkyBlue",
"$ c #00C3FF",
"% c #00C4FF",
"& c #00CCFF",
"* c #00D0FF",
"= c #00D6FF",
"- c #00DCFF",
"; c #00DDFF",
": c #00E2FF",
"> c #00E6FF",
", c #00E8FF",
"< c #00EAFF",
"1 c #00ECFF",
"2 c #00EDFF",
"3 c #00EFFF",
"4 c #00F1FF",
"5 c #00F3FF",
"6 c #00F4FF",
"7 c #00F5FF",
"8 c #00F7FF",
"9 c #00F8FF",
"0 c #00F9FF",
"q c #00FAFF",
"w c #00FBFF",
"e c #00FCFF",
"r c #00FDFF",
"t c #00FEFF",
"y c cyan",
/* pixels */
"  1yyt9tyyyyyyyyyyyyyyyyyyy;    ",
"  otyyyytttttttttttttttyyytX    ",
"   %twtyyyyyyyyyyyyyyyyytr#  +0>",
"      O9rttrtrr99799w99>X    eyy",
"t%                           tyt",
"yt+                         otyr",
"yy0                         5yy0",
"tyt    O80+         .$#e@   tyty",
"tyt+   9yytX        ,ytyr   tyty",
"tyy0   eyyyrO      -tyyyt   tyty",
"yyyr   @tyyytttttttyyytt&  @tyty",
"yyyw    #tyyyyyyyyyyyt-    ryyty",
"yyyt     ;yyyyyyyyyy0X     rytty",
"yyyy#    Xtyyyyyyyyt       tytty",
"yytyr     %yyyyyyyyt       tytty",
"yytyt     #tyyyyyyyt       tyyyy",
"yytyw     tyyyyyyyyr6O     rytty",
"yytyt    :yyyyyyyyyty9     tyyyy",
"yytyt   =tyyytttttyyyt*    tytty",
"yyyye  #tyyyt@   @tyyytt#  tyt3y",
"ytyt+  ryyt8X     @rtyyyr  tytqy",
"tyyq   #rr@         +0tt#  tytty",
"tytO                       ryyey",
"yyr                        #tytt",
"yt+                         0yy0",
"yr        +08O              +tyt",
"0+     +00tyyttttttttte+     2yy",
"     %ttyyytyyyyyyyyyyytttt# X4t",
"   @eyyyyttwrttttyttttyyyyyt@   ",
" +0tyytyyyyyyyyyyttr90ttttyyt#  ",
" 0yyytyyyyyyyyyyyyyyyyyyyttyyt. ",
" +0r<ryyytrttttyyttyyyyyyyyyty$ "
};
